<?xml version="1.0" standalone="no"?>
<!DOCTYPE svg PUBLIC "-//W3C//DTD SVG 20010904//EN"
 "http://www.w3.org/TR/2001/REC-SVG-20010904/DTD/svg10.dtd">
<svg version="1.0" xmlns="http://www.w3.org/2000/svg"
 width="282.000000pt" height="282.000000pt" viewBox="0 0 282.000000 282.000000"
 preserveAspectRatio="xMidYMid meet">
<metadata>
Created by potrace 1.14, written by Peter Selinger 2001-2017
</metadata>
<g transform="translate(0.000000,282.000000) scale(0.100000,-0.100000)"
fill="#000000" stroke="none">
<path d="M710 2618 c0 -4 -9 -8 -21 -8 -11 0 -17 -4 -14 -10 3 -5 2 -10 -2
-10 -5 0 -8 -332 -8 -737 0 -406 -3 -762 -6 -791 -3 -29 -3 -55 0 -57 4 -2 6
-200 6 -440 0 -240 3 -442 7 -448 4 -6 30 -12 57 -13 33 -1 49 2 45 8 -4 6 0
14 7 19 12 7 14 105 16 570 1 389 5 565 12 572 8 8 11 6 11 -6 0 -9 4 -17 10
-17 14 0 119 -107 112 -114 -3 -3 -1 -6 4 -6 6 0 62 -51 125 -112 64 -62 129
-125 145 -139 16 -14 52 -51 79 -82 28 -31 69 -71 92 -89 23 -18 42 -37 43
-41 0 -5 15 -22 33 -38 17 -17 58 -54 89 -84 31 -30 60 -55 65 -55 4 0 78 -72
164 -160 86 -88 159 -160 163 -160 5 0 15 -8 69 -53 19 -16 80 -21 115 -9 18
6 14 40 -8 62 -11 11 -20 25 -20 30 0 6 -5 10 -11 10 -13 0 -259 246 -259 260
0 5 -3 10 -8 10 -4 0 -42 33 -84 73 -42 39 -97 90 -122 112 -25 22 -46 46 -46
53 0 6 -4 12 -8 12 -11 0 -77 63 -116 110 -16 19 -32 35 -36 35 -3 0 -32 26
-64 58 -45 47 -55 61 -46 72 7 8 9 18 6 23 -3 5 1 20 9 34 7 15 16 45 19 69 3
23 11 48 17 55 7 9 8 14 1 14 -5 0 -8 8 -6 18 2 9 6 46 8 82 3 36 7 77 9 93 2
15 1 27 -3 27 -4 0 -8 30 -9 68 -1 69 -6 108 -16 152 -4 14 -7 31 -7 38 -1 6
-4 12 -8 12 -3 0 -6 18 -7 41 -1 32 5 47 28 70 15 16 33 29 38 29 6 0 7 7 4
17 -4 9 -2 14 3 10 6 -3 18 5 28 19 11 13 25 24 33 24 8 0 11 5 8 11 -4 6 2
13 14 16 12 3 21 9 21 13 0 5 15 24 34 44 19 19 53 60 76 91 22 30 45 53 51
50 5 -4 9 1 9 9 0 9 4 16 8 16 5 0 15 11 22 25 7 13 18 23 24 22 6 -1 10 4 8
11 -1 8 2 11 7 7 6 -3 29 14 52 37 24 24 37 34 29 23 -7 -11 3 -3 22 18 18 20
37 37 42 37 15 0 37 30 30 41 -4 7 -3 9 4 5 11 -7 114 89 104 98 -3 3 2 6 12
6 9 0 19 6 22 14 3 8 14 16 25 19 10 3 19 12 19 20 0 9 9 19 20 22 11 3 20 9
21 13 0 4 2 14 4 24 5 24 -63 43 -97 26 -10 -5 -18 -3 -21 5 -4 9 -6 9 -6 -1
-1 -7 -5 -11 -10 -7 -5 3 -21 -6 -35 -20 -14 -14 -27 -25 -30 -25 -3 0 -27
-22 -54 -49 -28 -28 -53 -47 -56 -44 -3 4 -6 1 -6 -6 0 -15 -235 -251 -250
-251 -6 0 -9 -3 -7 -7 1 -5 0 -9 -3 -10 -13 -6 -140 -131 -140 -137 0 -11 -53
-52 -62 -49 -4 2 -5 -4 -2 -12 4 -9 0 -15 -8 -15 -7 0 -28 -19 -46 -42 -18
-24 -36 -43 -39 -43 -4 0 -29 -24 -57 -54 -63 -67 -125 -128 -257 -251 -55
-52 -112 -105 -125 -118 l-24 -23 -1 38 c0 21 0 267 -1 547 0 487 -4 566 -30
566 -5 0 -7 4 -4 8 3 5 -8 8 -25 8 -16 0 -29 -3 -29 -8z m498 -988 c37 -60 46
-267 18 -430 -4 -21 -25 -87 -33 -99 -6 -10 -223 190 -223 206 0 2 -14 17 -32
34 l-32 29 139 139 c77 76 142 139 145 140 3 1 11 -8 18 -19z"/>
</g>
</svg>
